<svg xmlns="http://www.w3.org/2000/svg" fill="none" viewBox="0 0 160 51" class="design-iconfont">
  <path fill-rule="evenodd" clip-rule="evenodd" d="M116.294 14.3259L121.517 10.9894H121.515C121.641 10.9079 121.803 10.8993 121.938 10.9669C122.072 11.0346 122.157 11.1676 122.159 11.3134V40.7239C122.158 40.9413 121.973 41.1163 121.746 41.115H114.463C114.354 41.1158 114.25 41.075 114.172 41.0016C114.095 40.9283 114.051 40.8284 114.05 40.7239V39.1579C107.131 42.9132 98.3809 41.1285 93.6503 34.9972C88.9197 28.8658 89.6927 20.3113 95.4523 15.0533C101.212 9.79529 110.151 9.48329 116.294 14.3259ZM99.1563 28.841C100.353 31.6135 103.171 33.4212 106.297 33.4212C108.347 33.4213 110.313 32.6397 111.763 31.2484C113.212 29.8571 114.027 27.97 114.027 26.0023C114.027 23.0014 112.144 20.2959 109.255 19.1474C106.367 17.9989 103.043 18.6335 100.832 20.7554C98.6214 22.8773 97.96 26.0686 99.1563 28.841Z" fill="#210F60"/>
  <path d="M24.3682 0.000125608C14.7359 -0.0316585 6.20863 5.9714 3.34568 14.7997C3.30693 14.9187 3.32939 15.0482 3.40618 15.1487C3.48297 15.2492 3.60495 15.3087 3.73481 15.309H12.1733C12.325 15.3085 12.464 15.2273 12.5341 15.0981C14.8943 10.8015 19.592 8.16459 24.6504 8.29716C31.4221 8.46775 37.3165 14.055 37.5737 20.5528C37.8153 26.5064 33.7318 31.8278 27.7368 33.372C21.7418 34.9161 15.4317 32.2717 12.5358 27.0018C12.4654 26.8727 12.3264 26.7915 12.1745 26.7908H3.73481C3.60495 26.7911 3.48297 26.8506 3.40618 26.9511C3.32939 27.0516 3.30693 27.1812 3.34568 27.3002C6.68434 37.6143 17.6125 43.8303 28.6407 41.6881C39.669 39.546 47.2196 29.7407 46.118 18.992C45.0164 8.24332 35.62 0.0383328 24.3682 0.000125608Z" fill="#1DCF9F"/>
  <path fill-rule="evenodd" clip-rule="evenodd" d="M10.8057 24.8282H0.439904C0.196952 24.8282 0 24.6391 0 24.4059V17.6945C0 17.5825 0.0463469 17.4751 0.128845 17.3959C0.211343 17.3167 0.323234 17.2722 0.439904 17.2722H10.8057C10.9224 17.2722 11.0343 17.3167 11.1168 17.3959C11.1993 17.4751 11.2456 17.5825 11.2456 17.6945V24.4059C11.2456 24.6391 11.0487 24.8282 10.8057 24.8282Z" fill="#210F60"/>
  <path fill-rule="evenodd" clip-rule="evenodd" d="M71.0051 1.21014C79.6521 1.36451 86.5779 8.13708 86.5782 16.4388C86.5778 24.7842 79.5817 31.5755 70.8882 31.6694V31.6786H62.838V40.7262C62.838 40.8299 62.795 40.9294 62.7186 41.0026C62.6422 41.0759 62.5385 41.117 62.4305 41.1169H55.1232C55.0153 41.1169 54.9117 41.0758 54.8354 41.0025C54.7591 40.9292 54.7162 40.8299 54.7162 40.7262V1.59765C54.7161 1.49396 54.7589 1.39448 54.8353 1.32112C54.9116 1.24776 55.0152 1.20654 55.1232 1.20654H71.0051V1.21014ZM70.7092 23.8821V23.8749L70.71 23.8729C73.4913 23.8925 76.0701 22.4794 77.4666 20.1705C78.8632 17.8617 78.8632 15.0114 77.4666 12.7026C76.0701 10.3937 73.4913 8.98065 70.71 9.00022H62.838V23.8821H70.7092Z" fill="#210F60"/>
  <path d="M159.598 11.0078H152.156C151.738 11.0078 151.362 11.2468 151.198 11.615L143.391 29.1779L135.585 11.615C135.421 11.2468 135.045 11.0078 134.628 11.0078H127.601C127.466 11.0079 127.34 11.0731 127.265 11.1813C127.19 11.2896 127.177 11.4265 127.23 11.5459L139.229 38.5408L133.931 50.462C133.878 50.5814 133.891 50.7183 133.965 50.8266C134.04 50.9348 134.166 51 134.301 51.0001H141.743C142.16 51.0001 142.537 50.7611 142.701 50.3929L159.968 11.5459C160.021 11.4266 160.008 11.2896 159.933 11.1813C159.859 11.073 159.733 11.0078 159.598 11.0078Z" fill="#210F60"/>
</svg>
